<mxfile host="Electron" modified="2023-09-25T02:08:27.036Z" agent="Mozilla/5.0 (Windows NT 10.0; Win64; x64) AppleWebKit/537.36 (KHTML, like Gecko) draw.io/21.6.8 Chrome/114.0.5735.289 Electron/25.5.0 Safari/537.36" etag="GHR_LNy13GjYmwd7RuYA" version="21.6.8" type="device">
  <diagram name="Page-1" id="V0CJU69XfTmXyaMcu1EQ">
    <mxGraphModel dx="724" dy="856" grid="1" gridSize="10" guides="1" tooltips="1" connect="1" arrows="1" fold="1" page="1" pageScale="1" pageWidth="827" pageHeight="1169" math="0" shadow="0">
      <root>
        <mxCell id="0" />
        <mxCell id="1" parent="0" />
        <mxCell id="9G2WFYrtirqJYbntQYDt-29" value="" style="rounded=0;whiteSpace=wrap;html=1;" vertex="1" parent="1">
          <mxGeometry x="20" y="50" width="750" height="790" as="geometry" />
        </mxCell>
        <mxCell id="9G2WFYrtirqJYbntQYDt-1" value="người dùng" style="text;html=1;align=center;verticalAlign=middle;resizable=0;points=[];autosize=1;strokeColor=none;fillColor=none;" vertex="1" parent="1">
          <mxGeometry x="215" y="50" width="90" height="30" as="geometry" />
        </mxCell>
        <mxCell id="9G2WFYrtirqJYbntQYDt-2" value="hệ thống" style="text;html=1;align=center;verticalAlign=middle;resizable=0;points=[];autosize=1;strokeColor=none;fillColor=none;" vertex="1" parent="1">
          <mxGeometry x="580" y="50" width="70" height="30" as="geometry" />
        </mxCell>
        <mxCell id="9G2WFYrtirqJYbntQYDt-3" value="đăng nhập" style="html=1;whiteSpace=wrap;" vertex="1" parent="1">
          <mxGeometry x="50" y="90" width="110" height="50" as="geometry" />
        </mxCell>
        <mxCell id="9G2WFYrtirqJYbntQYDt-4" value="" style="ellipse;html=1;shape=startState;fillColor=#000000;strokeColor=#ff0000;" vertex="1" parent="1">
          <mxGeometry x="245" y="100" width="30" height="30" as="geometry" />
        </mxCell>
        <mxCell id="9G2WFYrtirqJYbntQYDt-5" value="" style="edgeStyle=orthogonalEdgeStyle;html=1;verticalAlign=bottom;endArrow=open;endSize=8;strokeColor=#ff0000;rounded=0;" edge="1" source="9G2WFYrtirqJYbntQYDt-4" parent="1">
          <mxGeometry relative="1" as="geometry">
            <mxPoint x="260" y="190" as="targetPoint" />
          </mxGeometry>
        </mxCell>
        <mxCell id="9G2WFYrtirqJYbntQYDt-6" value="" style="endArrow=classic;html=1;rounded=0;exitX=1;exitY=0.5;exitDx=0;exitDy=0;entryX=0;entryY=0.5;entryDx=0;entryDy=0;" edge="1" parent="1" source="9G2WFYrtirqJYbntQYDt-3" target="9G2WFYrtirqJYbntQYDt-4">
          <mxGeometry width="50" height="50" relative="1" as="geometry">
            <mxPoint x="320" y="270" as="sourcePoint" />
            <mxPoint x="370" y="220" as="targetPoint" />
          </mxGeometry>
        </mxCell>
        <mxCell id="9G2WFYrtirqJYbntQYDt-7" value="yêu cầu đặt vé" style="rounded=1;whiteSpace=wrap;html=1;arcSize=40;fontColor=#000000;fillColor=#ffffc0;strokeColor=#ff0000;" vertex="1" parent="1">
          <mxGeometry x="200" y="190" width="120" height="40" as="geometry" />
        </mxCell>
        <mxCell id="9G2WFYrtirqJYbntQYDt-8" value="" style="edgeStyle=orthogonalEdgeStyle;html=1;verticalAlign=bottom;endArrow=open;endSize=8;strokeColor=#ff0000;rounded=0;exitX=1;exitY=0.5;exitDx=0;exitDy=0;" edge="1" source="9G2WFYrtirqJYbntQYDt-7" parent="1">
          <mxGeometry relative="1" as="geometry">
            <mxPoint x="620" y="210" as="targetPoint" />
            <Array as="points">
              <mxPoint x="620" y="210" />
            </Array>
          </mxGeometry>
        </mxCell>
        <mxCell id="9G2WFYrtirqJYbntQYDt-9" value="xác nhận yêu cầu" style="rounded=1;whiteSpace=wrap;html=1;arcSize=40;fontColor=#000000;fillColor=#ffffc0;strokeColor=#ff0000;" vertex="1" parent="1">
          <mxGeometry x="620" y="190" width="120" height="40" as="geometry" />
        </mxCell>
        <mxCell id="9G2WFYrtirqJYbntQYDt-10" value="" style="edgeStyle=orthogonalEdgeStyle;html=1;verticalAlign=bottom;endArrow=open;endSize=8;strokeColor=#ff0000;rounded=0;" edge="1" source="9G2WFYrtirqJYbntQYDt-9" parent="1">
          <mxGeometry relative="1" as="geometry">
            <mxPoint x="680" y="290" as="targetPoint" />
          </mxGeometry>
        </mxCell>
        <mxCell id="9G2WFYrtirqJYbntQYDt-11" value="hiển thị thông tin chuyến tàu khả dụng" style="rounded=1;whiteSpace=wrap;html=1;arcSize=40;fontColor=#000000;fillColor=#ffffc0;strokeColor=#ff0000;" vertex="1" parent="1">
          <mxGeometry x="620" y="290" width="120" height="40" as="geometry" />
        </mxCell>
        <mxCell id="9G2WFYrtirqJYbntQYDt-13" value="" style="edgeStyle=orthogonalEdgeStyle;html=1;verticalAlign=bottom;endArrow=open;endSize=8;strokeColor=#ff0000;rounded=0;exitX=1;exitY=0.5;exitDx=0;exitDy=0;" edge="1" parent="1">
          <mxGeometry relative="1" as="geometry">
            <mxPoint x="320" y="309.47" as="targetPoint" />
            <mxPoint x="620" y="309.47" as="sourcePoint" />
            <Array as="points">
              <mxPoint x="419.95" y="309.42" />
              <mxPoint x="419.95" y="309.42" />
            </Array>
          </mxGeometry>
        </mxCell>
        <mxCell id="9G2WFYrtirqJYbntQYDt-14" value="chọn chuyến tàu và loại vé" style="rounded=1;whiteSpace=wrap;html=1;arcSize=40;fontColor=#000000;fillColor=#ffffc0;strokeColor=#ff0000;" vertex="1" parent="1">
          <mxGeometry x="200" y="290" width="120" height="40" as="geometry" />
        </mxCell>
        <mxCell id="9G2WFYrtirqJYbntQYDt-15" value="" style="edgeStyle=orthogonalEdgeStyle;html=1;verticalAlign=bottom;endArrow=open;endSize=8;strokeColor=#ff0000;rounded=0;" edge="1" source="9G2WFYrtirqJYbntQYDt-14" parent="1">
          <mxGeometry relative="1" as="geometry">
            <mxPoint x="620" y="400" as="targetPoint" />
            <Array as="points">
              <mxPoint x="260" y="400" />
            </Array>
          </mxGeometry>
        </mxCell>
        <mxCell id="9G2WFYrtirqJYbntQYDt-16" value="yêu cầu thanh toán" style="rounded=1;whiteSpace=wrap;html=1;arcSize=40;fontColor=#000000;fillColor=#ffffc0;strokeColor=#ff0000;" vertex="1" parent="1">
          <mxGeometry x="620" y="380" width="120" height="40" as="geometry" />
        </mxCell>
        <mxCell id="9G2WFYrtirqJYbntQYDt-18" value="" style="edgeStyle=orthogonalEdgeStyle;html=1;verticalAlign=bottom;endArrow=open;endSize=8;strokeColor=#ff0000;rounded=0;" edge="1" parent="1">
          <mxGeometry relative="1" as="geometry">
            <mxPoint x="320" y="490" as="targetPoint" />
            <mxPoint x="680" y="420" as="sourcePoint" />
            <Array as="points">
              <mxPoint x="680" y="490" />
            </Array>
          </mxGeometry>
        </mxCell>
        <mxCell id="9G2WFYrtirqJYbntQYDt-19" value="cung cấp thông tin thanh toán" style="rounded=1;whiteSpace=wrap;html=1;arcSize=40;fontColor=#000000;fillColor=#ffffc0;strokeColor=#ff0000;" vertex="1" parent="1">
          <mxGeometry x="200" y="470" width="120" height="40" as="geometry" />
        </mxCell>
        <mxCell id="9G2WFYrtirqJYbntQYDt-21" value="" style="edgeStyle=orthogonalEdgeStyle;html=1;verticalAlign=bottom;endArrow=open;endSize=8;strokeColor=#ff0000;rounded=0;" edge="1" parent="1">
          <mxGeometry relative="1" as="geometry">
            <mxPoint x="620" y="580" as="targetPoint" />
            <mxPoint x="260" y="510" as="sourcePoint" />
            <Array as="points">
              <mxPoint x="260" y="580" />
            </Array>
          </mxGeometry>
        </mxCell>
        <mxCell id="9G2WFYrtirqJYbntQYDt-22" value="xử lý thanh toán" style="rounded=1;whiteSpace=wrap;html=1;arcSize=40;fontColor=#000000;fillColor=#ffffc0;strokeColor=#ff0000;" vertex="1" parent="1">
          <mxGeometry x="620" y="560" width="120" height="40" as="geometry" />
        </mxCell>
        <mxCell id="9G2WFYrtirqJYbntQYDt-23" value="" style="edgeStyle=orthogonalEdgeStyle;html=1;verticalAlign=bottom;endArrow=open;endSize=8;strokeColor=#ff0000;rounded=0;" edge="1" source="9G2WFYrtirqJYbntQYDt-22" parent="1">
          <mxGeometry relative="1" as="geometry">
            <mxPoint x="680" y="660" as="targetPoint" />
          </mxGeometry>
        </mxCell>
        <mxCell id="9G2WFYrtirqJYbntQYDt-24" value="xác nhận và cung cấp thông tin vé đã đặt" style="rounded=1;whiteSpace=wrap;html=1;arcSize=40;fontColor=#000000;fillColor=#ffffc0;strokeColor=#ff0000;" vertex="1" parent="1">
          <mxGeometry x="620" y="660" width="120" height="40" as="geometry" />
        </mxCell>
        <mxCell id="9G2WFYrtirqJYbntQYDt-26" value="" style="edgeStyle=orthogonalEdgeStyle;html=1;verticalAlign=bottom;endArrow=open;endSize=8;strokeColor=#ff0000;rounded=0;" edge="1" parent="1">
          <mxGeometry relative="1" as="geometry">
            <mxPoint x="280" y="770" as="targetPoint" />
            <mxPoint x="680" y="700" as="sourcePoint" />
            <Array as="points">
              <mxPoint x="680" y="770" />
            </Array>
          </mxGeometry>
        </mxCell>
        <mxCell id="9G2WFYrtirqJYbntQYDt-27" value="" style="ellipse;html=1;shape=endState;fillColor=#000000;strokeColor=#ff0000;" vertex="1" parent="1">
          <mxGeometry x="245" y="760" width="30" height="30" as="geometry" />
        </mxCell>
        <mxCell id="9G2WFYrtirqJYbntQYDt-30" value="" style="endArrow=none;html=1;rounded=0;entryX=0.576;entryY=0;entryDx=0;entryDy=0;exitX=0.576;exitY=1.005;exitDx=0;exitDy=0;exitPerimeter=0;entryPerimeter=0;" edge="1" parent="1" source="9G2WFYrtirqJYbntQYDt-29" target="9G2WFYrtirqJYbntQYDt-29">
          <mxGeometry width="50" height="50" relative="1" as="geometry">
            <mxPoint x="360" y="360" as="sourcePoint" />
            <mxPoint x="410" y="310" as="targetPoint" />
          </mxGeometry>
        </mxCell>
        <mxCell id="9G2WFYrtirqJYbntQYDt-31" value="" style="endArrow=none;html=1;rounded=0;exitX=0;exitY=0.039;exitDx=0;exitDy=0;exitPerimeter=0;entryX=1;entryY=0.037;entryDx=0;entryDy=0;entryPerimeter=0;" edge="1" parent="1" source="9G2WFYrtirqJYbntQYDt-29" target="9G2WFYrtirqJYbntQYDt-29">
          <mxGeometry width="50" height="50" relative="1" as="geometry">
            <mxPoint x="370" y="490" as="sourcePoint" />
            <mxPoint x="750" y="80" as="targetPoint" />
          </mxGeometry>
        </mxCell>
      </root>
    </mxGraphModel>
  </diagram>
</mxfile>
